G04 DipTrace 3.2.0.1*
G04 PlancksII_rohm.GTS*
%MOIN*%
G04 #@! TF.FileFunction,Soldermask,Top*
G04 #@! TF.Part,Single*
%AMOUTLINE0*
4,1,4,
-0.019685,-0.027559,
0.019685,-0.027559,
0.019685,0.027559,
-0.019685,0.027559,
-0.019685,-0.027559,
0*%
%AMOUTLINE1*
4,1,4,
-0.0395,0.0295,
-0.0395,-0.0295,
0.0395,-0.0295,
0.0395,0.0295,
-0.0395,0.0295,
0*%
%AMOUTLINE2*
4,1,4,
-0.0395,0.075,
-0.0395,-0.075,
0.0395,-0.075,
0.0395,0.075,
-0.0395,0.075,
0*%
%AMOUTLINE3*
4,1,4,
-0.004921,-0.019685,
0.004921,-0.019685,
0.004921,0.019685,
-0.004921,0.019685,
-0.004921,-0.019685,
0*%
%AMOUTLINE4*
4,1,4,
0.004921,0.019685,
-0.004921,0.019685,
-0.004921,-0.019685,
0.004921,-0.019685,
0.004921,0.019685,
0*%
%AMOUTLINE5*
4,1,4,
0.043307,-0.011811,
0.043307,0.011811,
-0.043307,0.011811,
-0.043307,-0.011811,
0.043307,-0.011811,
0*%
%AMOUTLINE6*
4,1,8,
0.014159,0.034184,
0.034184,0.014159,
0.034184,-0.014159,
0.014159,-0.034184,
-0.014159,-0.034184,
-0.034184,-0.014159,
-0.034184,0.014159,
-0.014159,0.034184,
0.014159,0.034184,
0*%
%AMOUTLINE7*
4,1,8,
-0.020325,0.008419,
-0.008419,0.020325,
0.008419,0.020325,
0.020325,0.008419,
0.020325,-0.008419,
0.008419,-0.020325,
-0.008419,-0.020325,
-0.020325,-0.008419,
-0.020325,0.008419,
0*%
%AMOUTLINE8*
4,1,4,
-0.01378,0.016732,
-0.01378,-0.016732,
0.01378,-0.016732,
0.01378,0.016732,
-0.01378,0.016732,
0*%
%AMOUTLINE9*
4,1,4,
0.01378,-0.016732,
0.01378,0.016732,
-0.01378,0.016732,
-0.01378,-0.016732,
0.01378,-0.016732,
0*%
%AMOUTLINE10*
4,1,4,
0.027559,-0.019685,
0.027559,0.019685,
-0.027559,0.019685,
-0.027559,-0.019685,
0.027559,-0.019685,
0*%
%AMOUTLINE11*
4,1,4,
0.019685,-0.005,
0.019685,0.005,
-0.019685,0.005,
-0.019685,-0.005,
0.019685,-0.005,
0*%
%AMOUTLINE12*
4,1,4,
0.005,-0.019685,
0.005,0.019685,
-0.005,0.019685,
-0.005,-0.019685,
0.005,-0.019685,
0*%
%ADD40C,0.074*%
%ADD58C,0.128*%
%ADD69R,0.039496X0.070992*%
%ADD71O,0.063X0.098*%
%ADD73R,0.08674X0.023748*%
%ADD75R,0.078866X0.078866*%
%ADD77C,0.078866*%
%ADD79R,0.058X0.058*%
%ADD81C,0.058*%
%ADD89O,0.093X0.083*%
%ADD91R,0.078866X0.023748*%
%ADD93R,0.049339X0.033591*%
%ADD95R,0.033591X0.049339*%
%ADD97O,0.108X0.143*%
%ADD99C,0.073*%
%ADD101R,0.04737X0.094614*%
%ADD103R,0.108394X0.070992*%
%ADD105R,0.070992X0.108394*%
%ADD107R,0.04737X0.051307*%
%ADD109R,0.051307X0.04737*%
%ADD111C,0.077*%
%ADD117OUTLINE0*%
%ADD118OUTLINE1*%
%ADD119OUTLINE2*%
%ADD120OUTLINE3*%
%ADD121OUTLINE4*%
%ADD122OUTLINE5*%
%ADD123OUTLINE6*%
%ADD124OUTLINE7*%
%ADD125OUTLINE8*%
%ADD126OUTLINE9*%
%ADD127OUTLINE10*%
%ADD128OUTLINE11*%
%ADD129OUTLINE12*%
%FSLAX26Y26*%
G04*
G70*
G90*
G75*
G01*
G04 TopMask*
%LPD*%
D111*
X1247025Y4626583D3*
Y4449417D3*
X991120D3*
X991073Y4627000D3*
X706527Y4626332D3*
Y4449167D3*
X450621D3*
X450574Y4626749D3*
D109*
X938025Y2887000D3*
X1004955D3*
D107*
X848025Y3718000D3*
Y3651071D3*
D105*
X987776Y3569000D3*
Y3431205D3*
D103*
X646025Y3408500D3*
X783821D3*
D109*
X962776Y3225249D3*
X1029705D3*
D107*
X544025Y4331500D3*
Y4264571D3*
X1706525Y4337749D3*
Y4270820D3*
D109*
X598455Y3231500D3*
X531525D3*
D103*
X1719025Y2481500D3*
X1856821D3*
D107*
X1164990Y2989965D3*
Y2923035D3*
X1322025Y3268000D3*
Y3201071D3*
D109*
X1040025Y3310000D3*
X1106955D3*
D105*
X994025Y3881000D3*
Y3743205D3*
D107*
X842025Y3979000D3*
Y3912071D3*
X1244025Y3794000D3*
Y3727071D3*
X1150276Y3800249D3*
Y3733320D3*
X1250276Y3562751D3*
Y3629680D3*
X1156525Y3562751D3*
Y3629680D3*
D105*
X1556525Y1750249D3*
Y1888045D3*
D107*
X1869025Y3806500D3*
Y3873429D3*
D109*
X1006527Y1637749D3*
X1073456D3*
X1637025Y721000D3*
X1570096D3*
X1652025Y1282000D3*
X1585096D3*
X1679025Y3862000D3*
X1745955D3*
D107*
X1869025Y3412749D3*
Y3345820D3*
D109*
X1484025Y517000D3*
X1417096D3*
X815025Y1282000D3*
X748096D3*
X1706525Y3021500D3*
X1639596D3*
X1800276Y3029000D3*
X1867205D3*
X892205Y1669000D3*
X825276D3*
X893025Y718000D3*
X826096D3*
X1769025Y3349000D3*
X1702096D3*
X1592025Y1051000D3*
X1525096D3*
X548955Y1561000D3*
X482025D3*
X1269025Y1200249D3*
X1335955D3*
X1304705Y675249D3*
X1237776D3*
X717205Y1050249D3*
X650276D3*
D107*
X1369025Y3900251D3*
Y3967180D3*
Y3460930D3*
Y3394001D3*
D109*
X475276Y1212749D3*
X542205D3*
X729705Y519000D3*
X662776D3*
X542205Y700249D3*
X475276D3*
X729705Y1431500D3*
X662776D3*
X1487025Y2809000D3*
X1420096D3*
D117*
X1322025Y2908000D3*
X1247222D3*
X1284624Y2821386D3*
D101*
X1606525Y2393803D3*
X1506525D3*
Y2169000D3*
X1606525D3*
D99*
X916663Y1885929D3*
X769025D3*
X621388D3*
D97*
X498553Y2319000D3*
X1039498D3*
D118*
X744025Y3612749D3*
Y3702749D3*
Y3792749D3*
D119*
X496025Y3701749D3*
D95*
X1262025Y2986000D3*
X1336829D3*
X1299427Y3076551D3*
D120*
X1237776Y3287249D3*
X1218091D3*
X1198406D3*
X1178721D3*
X1159036D3*
D121*
Y3120864D3*
X1178721D3*
X1198406D3*
X1218091D3*
X1237776D3*
D118*
X744025Y3931500D3*
Y4021500D3*
Y4111500D3*
D119*
X496025Y4020500D3*
D93*
X1794025Y4087749D3*
Y4012946D3*
X1884577Y4050348D3*
D91*
X1469025Y4144000D3*
Y4118409D3*
Y4092819D3*
Y4067228D3*
X1697372D3*
Y4092819D3*
Y4118409D3*
Y4144000D3*
X675276Y1600249D3*
Y1574659D3*
Y1549068D3*
Y1523478D3*
X903623D3*
Y1549068D3*
Y1574659D3*
Y1600249D3*
X1444025Y1212749D3*
Y1187159D3*
Y1161568D3*
Y1135978D3*
X1672372D3*
Y1161568D3*
Y1187159D3*
Y1212749D3*
X1431525Y650249D3*
Y624659D3*
Y599068D3*
Y573478D3*
X1659872D3*
Y599068D3*
Y624659D3*
Y650249D3*
D122*
X1506525Y3794000D3*
Y3744000D3*
Y3694000D3*
Y3644000D3*
Y3594000D3*
Y3544000D3*
Y3494000D3*
Y3444000D3*
X1711250D3*
Y3494000D3*
Y3544000D3*
Y3594000D3*
Y3644000D3*
Y3694000D3*
Y3744000D3*
Y3794000D3*
D91*
X669025Y1206500D3*
Y1180909D3*
Y1155319D3*
Y1129728D3*
X897372D3*
Y1155319D3*
Y1180909D3*
Y1206500D3*
X681525Y656500D3*
Y630909D3*
Y605319D3*
Y579728D3*
X909872D3*
Y605319D3*
Y630909D3*
Y656500D3*
X1456525Y2958500D3*
Y2932909D3*
Y2907319D3*
Y2881728D3*
X1684872D3*
Y2907319D3*
Y2932909D3*
Y2958500D3*
D89*
X975276Y1719000D3*
Y1394000D3*
D99*
Y1819000D3*
D89*
X1750276Y982000D3*
Y1307000D3*
D99*
Y882000D3*
D89*
X1369025Y982000D3*
Y1307000D3*
D99*
Y882000D3*
D89*
X975275Y982000D3*
Y1307000D3*
D99*
Y882000D3*
D89*
X587776Y982000D3*
Y1307000D3*
D99*
Y882000D3*
D89*
X1369025Y1719000D3*
Y1394000D3*
D99*
Y1819000D3*
D89*
X587776Y1719000D3*
Y1394000D3*
D99*
Y1819000D3*
D89*
X1750275Y781000D3*
Y456000D3*
D99*
Y881000D3*
D89*
X1369025Y781000D3*
Y456000D3*
D99*
Y881000D3*
D89*
X972025Y781000D3*
Y456000D3*
D99*
Y881000D3*
D89*
X587776Y781000D3*
Y456000D3*
D99*
Y881000D3*
D89*
X1750276Y1725249D3*
Y1400249D3*
D99*
Y1825249D3*
D40*
X1538025Y4639000D3*
X1638025D3*
X1738025D3*
D123*
X1247776Y1850251D3*
X1147776D3*
X1247776Y1950251D3*
X1147776D3*
X1247776Y2050251D3*
X1147776D3*
X1247776Y2150251D3*
X1147776D3*
X1247776Y2250251D3*
X1147776D3*
D124*
X1319025Y2519750D3*
Y2469750D3*
X1269025Y2519750D3*
Y2469750D3*
X1219025Y2519750D3*
Y2469750D3*
X1169025Y2519750D3*
Y2469750D3*
X1119025Y2519750D3*
Y2469750D3*
D125*
X1369025Y1956500D3*
Y2019492D3*
D126*
Y2177366D3*
Y2114374D3*
D81*
X799025Y4537500D3*
D79*
X899025D3*
D127*
X1520025Y1597000D3*
X1606640Y1559598D3*
X1520025Y1522197D3*
D107*
X489990Y3508714D3*
Y3441785D3*
X1271241Y4129535D3*
Y4196465D3*
X1187776Y4131751D3*
Y4198680D3*
X1006525Y4116751D3*
Y4183680D3*
X917025Y4138000D3*
Y4204929D3*
D109*
X899025Y2812000D3*
X965955D3*
D107*
X582200Y2507440D3*
Y2440510D3*
X689025Y2514181D3*
Y2447252D3*
X793885Y2511945D3*
Y2445016D3*
D99*
X1667025Y2024000D3*
X1569025Y2023724D3*
X1471025Y2024000D3*
D97*
X1382025Y2319000D3*
X1756025D3*
D107*
X1100276Y4131751D3*
Y4198680D3*
X1081525Y2925251D3*
Y2992180D3*
D109*
X1304025Y1558000D3*
X1370955D3*
D107*
X1244025Y3968999D3*
Y3902070D3*
X1156525Y3968999D3*
Y3902070D3*
X1250276Y3394001D3*
Y3460930D3*
X1156525Y3394001D3*
Y3460930D3*
D109*
X1198561Y1639465D3*
X1265490D3*
X1703025Y1615000D3*
X1769955D3*
X1772955Y1510000D3*
X1706025D3*
X1794025Y4181500D3*
X1860955D3*
X1625276Y3962749D3*
X1692205D3*
X1075275Y1468999D3*
X1008346D3*
X1012775Y1556499D3*
X1079704D3*
X484096Y1648000D3*
X551025D3*
X1856525Y1200249D3*
X1789596D3*
X1859955Y652000D3*
X1793025D3*
D107*
X1791811Y3204285D3*
Y3271214D3*
X1869025Y3723429D3*
Y3656500D3*
X1871241Y3504285D3*
Y3571214D3*
X1683741Y3204285D3*
Y3271214D3*
D109*
X1073025Y1210000D3*
X1006096D3*
X1088955Y658000D3*
X1022025D3*
X1794025Y3119000D3*
X1860955D3*
X1869025Y2935249D3*
X1802096D3*
X1600276Y3081500D3*
X1533347D3*
X1869025Y2841500D3*
X1802096D3*
X548955Y1468000D3*
X482025D3*
X1691025Y838000D3*
X1624096D3*
X692025Y835000D3*
X758955D3*
X1079025Y838000D3*
X1145955D3*
X1459096D3*
X1526025D3*
X1589025Y457000D3*
X1655955D3*
X1266811Y1121215D3*
X1333741D3*
X1791811Y1114965D3*
X1858741D3*
X1212776Y456500D3*
X1279705D3*
X1302490Y583715D3*
X1235561D3*
X1862025Y565000D3*
X1795096D3*
D107*
X1575276Y3203500D3*
Y3270429D3*
X1375276Y3800249D3*
Y3733320D3*
X1371241Y3560535D3*
Y3627465D3*
X1427025Y3211000D3*
Y3277929D3*
D109*
X804311Y458715D3*
X871241D3*
X479311Y1114965D3*
X546241D3*
X1073025Y1129000D3*
X1006096D3*
X470847Y531500D3*
X537776D3*
X539990Y614965D3*
X473061D3*
X1088025Y541000D3*
X1021096D3*
X1492712Y3026890D3*
X1425783D3*
X1456525Y3962749D3*
X1523455D3*
D77*
X1833775Y4493749D3*
X1733775D3*
D75*
X1633775D3*
D73*
X476025Y3067000D3*
Y3114507D3*
Y3162013D3*
D128*
X606525Y3162749D3*
Y3143064D3*
Y3123379D3*
Y3103694D3*
Y3084009D3*
Y3064324D3*
Y3044639D3*
Y3024954D3*
Y3005269D3*
Y2985584D3*
Y2965899D3*
Y2946214D3*
D129*
X665581Y2887159D3*
X685266D3*
X704951D3*
X724636D3*
X744321D3*
X764006D3*
X783691D3*
X803376D3*
X823061D3*
X842746D3*
X862431D3*
X882116D3*
D128*
X941171Y2946214D3*
Y2965899D3*
Y2985584D3*
Y3005269D3*
Y3024954D3*
Y3044639D3*
Y3064324D3*
Y3084009D3*
Y3103694D3*
Y3123379D3*
Y3143064D3*
Y3162749D3*
D129*
X882116Y3221804D3*
X862431D3*
X842746D3*
X823061D3*
X803376D3*
X783691D3*
X764006D3*
X744321D3*
X724636D3*
X704951D3*
X685266D3*
X665581D3*
D71*
X1793970Y2706598D3*
X1893970D3*
X1793970Y4281402D3*
X1693970Y2706598D3*
X1593970Y4281402D3*
Y2706598D3*
X1412759D3*
X1512759D3*
X1412759Y4281402D3*
X1312759Y2706598D3*
X1212759Y4281402D3*
Y2706598D3*
X1031550D3*
X1131550D3*
X1031550Y4281402D3*
X931550Y2706598D3*
X831550Y4281402D3*
Y2706598D3*
X644090D3*
X744090D3*
X644090Y4281402D3*
X544090Y2706598D3*
X444090Y4281402D3*
Y2706598D3*
D69*
X1504096Y3352929D3*
X1637955D3*
D58*
X1387525Y4544000D3*
G36*
X407025Y4165000D2*
X482025D1*
Y3565000D1*
X407025D1*
Y4165000D1*
G37*
G36*
Y3949000D2*
X542025D1*
Y3769000D1*
X407025D1*
Y3949000D1*
G37*
G36*
X404025Y4165000D2*
X545025D1*
Y4087000D1*
X404025D1*
Y4165000D1*
G37*
G36*
X407025Y3631000D2*
X542025D1*
Y3559000D1*
X407025D1*
Y3631000D1*
G37*
M02*
