G04 DipTrace 3.2.0.1*
G04 PlancksII_rohm.GBS*
%MOIN*%
G04 #@! TF.FileFunction,Soldermask,Bot*
G04 #@! TF.Part,Single*
%AMOUTLINE6*
4,1,8,
0.014159,0.034184,
0.034184,0.014159,
0.034184,-0.014159,
0.014159,-0.034184,
-0.014159,-0.034184,
-0.034184,-0.014159,
-0.034184,0.014159,
-0.014159,0.034184,
0.014159,0.034184,
0*%
%AMOUTLINE7*
4,1,8,
-0.020325,0.008419,
-0.008419,0.020325,
0.008419,0.020325,
0.020325,0.008419,
0.020325,-0.008419,
0.008419,-0.020325,
-0.008419,-0.020325,
-0.020325,-0.008419,
-0.020325,0.008419,
0*%
%ADD40C,0.074*%
%ADD58C,0.128*%
%ADD71O,0.063X0.098*%
%ADD75R,0.078866X0.078866*%
%ADD77C,0.078866*%
%ADD79R,0.058X0.058*%
%ADD81C,0.058*%
%ADD83R,0.031622X0.065087*%
%ADD85R,0.039496X0.065087*%
%ADD89O,0.093X0.083*%
%ADD97O,0.108X0.143*%
%ADD99C,0.073*%
%ADD111C,0.077*%
%ADD123OUTLINE6*%
%ADD124OUTLINE7*%
%FSLAX26Y26*%
G04*
G70*
G90*
G75*
G01*
G04 BotMask*
%LPD*%
D111*
X1247025Y4626583D3*
Y4449417D3*
X991120D3*
X991073Y4627000D3*
X706527Y4626332D3*
Y4449167D3*
X450621D3*
X450574Y4626749D3*
D99*
X916663Y1885929D3*
X769025D3*
X621388D3*
D97*
X498553Y2319000D3*
X1039498D3*
D89*
X975276Y1719000D3*
Y1394000D3*
D99*
Y1819000D3*
D89*
X1750276Y982000D3*
Y1307000D3*
D99*
Y882000D3*
D89*
X1369025Y982000D3*
Y1307000D3*
D99*
Y882000D3*
D89*
X975275Y982000D3*
Y1307000D3*
D99*
Y882000D3*
D89*
X587776Y982000D3*
Y1307000D3*
D99*
Y882000D3*
D89*
X1369025Y1719000D3*
Y1394000D3*
D99*
Y1819000D3*
D89*
X587776Y1719000D3*
Y1394000D3*
D99*
Y1819000D3*
D89*
X1750275Y781000D3*
Y456000D3*
D99*
Y881000D3*
D89*
X1369025Y781000D3*
Y456000D3*
D99*
Y881000D3*
D89*
X972025Y781000D3*
Y456000D3*
D99*
Y881000D3*
D89*
X587776Y781000D3*
Y456000D3*
D99*
Y881000D3*
D89*
X1750276Y1725249D3*
Y1400249D3*
D99*
Y1825249D3*
D40*
X1538025Y4639000D3*
X1638025D3*
X1738025D3*
D123*
X1247776Y1850251D3*
X1147776D3*
X1247776Y1950251D3*
X1147776D3*
X1247776Y2050251D3*
X1147776D3*
X1247776Y2150251D3*
X1147776D3*
X1247776Y2250251D3*
X1147776D3*
D124*
X1319025Y2519750D3*
Y2469750D3*
X1269025Y2519750D3*
Y2469750D3*
X1219025Y2519750D3*
Y2469750D3*
X1169025Y2519750D3*
Y2469750D3*
X1119025Y2519750D3*
Y2469750D3*
D85*
X727687Y2379039D3*
D83*
X769025D3*
D85*
X810364D3*
Y2258961D3*
D83*
X769025D3*
D85*
X727687D3*
D81*
X799025Y4537500D3*
D79*
X899025D3*
D99*
X1667025Y2024000D3*
X1569025Y2023724D3*
X1471025Y2024000D3*
D97*
X1382025Y2319000D3*
X1756025D3*
D77*
X1833775Y4493749D3*
X1733775D3*
D75*
X1633775D3*
D71*
X1793970Y2706598D3*
X1893970D3*
X1793970Y4281402D3*
X1693970Y2706598D3*
X1593970Y4281402D3*
Y2706598D3*
X1412759D3*
X1512759D3*
X1412759Y4281402D3*
X1312759Y2706598D3*
X1212759Y4281402D3*
Y2706598D3*
X1031550D3*
X1131550D3*
X1031550Y4281402D3*
X931550Y2706598D3*
X831550Y4281402D3*
Y2706598D3*
X644090D3*
X744090D3*
X644090Y4281402D3*
X544090Y2706598D3*
X444090Y4281402D3*
Y2706598D3*
D58*
X1387525Y4544000D3*
M02*
