M48
INCH
T01C0.015
T02C0.024
T03C0.028
T04C0.0394
T05C0.04
T06C0.043
T07C0.0433
T08C0.052
T09C0.084
T10C0.128
%
T01
X+012620Y+026470
X+013700Y+028060
X+012950Y+028780
X+013070Y+029830
X+014056Y+029350
X+015059Y+029599
X+015424Y+029878
X+015059Y+030583
X+014056Y+030619
X+013747Y+030898
X+014300Y+031450
X+012890Y+031630
X+011957Y+031709
X+011436Y+032371
X+011029Y+032292
X+009980Y+031720
X+009860Y+031060
X+009885Y+030652
X+010144Y+030392
X+009885Y+030053
X+010144Y+029440
X+010370Y+028600
X+010220Y+028210
X+010880Y+028060
X+011000Y+027700
X+011090Y+028810
X+011390Y+029890
X+011745Y+030828
X+012022Y+033355
X+012404Y+033382
X+013640Y+033250
X+013940Y+032830
X+015110Y+032710
X+016678Y+031742
X+017095Y+032674
X+018350Y+032593
X+018260Y+031900
X+017570Y+030820
X+017690Y+029260
X+018500Y+028660
X+017630Y+027700
X+016678Y+027700
X+016070Y+027730
X+016378Y+028232
X+015920Y+028835
X+016378Y+029585
X+014870Y+028450
X+015800Y+026230
X+016850Y+026230
X+017030Y+025660
X+017840Y+025630
X+016440Y+024815
X+015830Y+022840
X+016550Y+019330
X+015050Y+018730
X+014000Y+019060
X+010730Y+019810
X+008126Y+021848
X+007672Y+021856
X+007206Y+021828
X+008060Y+023200
X+008630Y+024070
X+009037Y+024058
X+008570Y+024580
X+008410Y+025099
X+009287Y+025051
X+009841Y+024780
X+010580Y+025088
X+010804Y+025674
X+011240Y+023710
X+007616Y+024497
X+006860Y+024190
X+007228Y+025231
X+007550Y+025405
X+007580Y+026410
X+008339Y+026383
X+007880Y+027760
X+007970Y+028450
X+007370Y+028450
X+006590Y+028000
X+006069Y+028013
X+005553Y+028384
X+005806Y+028839
X+006069Y+029227
X+006781Y+029392
X+007031Y+029699
X+007400Y+029680
X+007670Y+029950
X+007970Y+029560
X+007430Y+030730
X+007670Y+031060
X+008299Y+031263
X+008562Y+031559
X+008034Y+031808
X+007640Y+031817
X+007233Y+031794
X+007303Y+032737
X+007815Y+032627
X+008815Y+032627
X+008780Y+033070
X+009530Y+033100
X+009290Y+033850
X+011021Y+033759
X+012770Y+034770
X+013400Y+034609
X+014270Y+034686
X+013400Y+035627
X+012770Y+035710
X+012815Y+036690
X+014128Y+036377
X+014253Y+037440
X+013440Y+038065
X+012815Y+038440
X+013378Y+039065
X+012253Y+040127
X+011565Y+040065
X+011503Y+038627
X+011128Y+036940
X+010760Y+036580
X+010219Y+036568
X+010440Y+035877
X+008190Y+035877
X+008210Y+035290
X+006185Y+034690
X+005815Y+034060
X+005122Y+033445
X+006185Y+033000
X+005960Y+032020
X+005630Y+030490
X+005122Y+030175
X+005240Y+029513
X+006710Y+030400
X+007040Y+030580
X+009069Y+031901
X+009530Y+028459
X+009080Y+028420
X+006532Y+026361
X+005600Y+026410
X+006479Y+025234
X+007070Y+019870
X+008180Y+016120
X+007640Y+015220
X+008840Y+014680
X+008540Y+013630
X+008480Y+012760
X+008360Y+012065
X+007640Y+011260
X+007970Y+010357
X+008690Y+009940
X+010580Y+010900
X+011390Y+011740
X+011960Y+011140
X+013100Y+010990
X+013760Y+012040
X+014690Y+012640
X+014360Y+013570
X+014360Y+014920
X+015950Y+014980
X+016310Y+015100
X+016265Y+014185
X+015860Y+013120
X+015770Y+012160
X+016130Y+011380
X+015050Y+011320
X+015050Y+010720
X+015800Y+010090
X+018050Y+010900
X+017570Y+012250
X+018800Y+012520
X+018080Y+014620
X+017510Y+014920
X+017630Y+015910
X+018800Y+016660
X+018800Y+020230
X+012650Y+015610
X+011480Y+014950
X+011390Y+014380
X+010790Y+014380
X+010160Y+015220
X+010850Y+016000
X+011540Y+016420
X+009650Y+016510
X+009890Y+012460
X+005779Y+012127
X+005360Y+010780
X+004520Y+009280
X+005690Y+007180
X+005570Y+005830
X+005990Y+005440
X+006740Y+004510
X+007640Y+005710
X+008180Y+006580
X+010010Y+007000
X+010850Y+006310
X+010670Y+005050
X+013040Y+005500
X+013010Y+007090
X+011480Y+007480
X+015050Y+005710
X+015800Y+006502
X+017990Y+006940
X+018350Y+006271
X+018620Y+005260
X+014510Y+004600
X+004880Y+014380
X+005480Y+015100
X+004866Y+015955
X+004276Y+031141
X+005450Y+035962
X+007370Y+038620
X+008270Y+038380
X+008065Y+037940
X+009878Y+039377
X+009878Y+040002
X+009680Y+040780
X+009190Y+040880
X+008878Y+041255
X+008565Y+040817
X+008300Y+040480
X+007940Y+041115
X+006190Y+040362
X+004880Y+039340
X+004440Y+042065
X+005930Y+045790
X+008840Y+042820
X+011030Y+042490
X+011570Y+042130
X+010970Y+045310
X+015590Y+045610
X+016550Y+045880
X+018110Y+045640
X+019010Y+044260
X+017600Y+041290
X+016378Y+041440
X+016067Y+040690
X+015440Y+041140
X+014810Y+041680
X+015940Y+042440
X+015170Y+039310
X+016378Y+037940
X+015740Y+036430
X+015620Y+035940
X+016527Y+034891
X+015889Y+034502
X+017660Y+035940
X+017960Y+036400
X+018380Y+036550
X+018128Y+037440
T02
X+013190Y+025198
X+013190Y+024698
X+012690Y+024698
X+012690Y+025198
X+012190Y+025198
X+012190Y+024698
X+011690Y+024698
X+011690Y+025198
X+011190Y+025198
X+011190Y+024698
T03
X+007990Y+045375
X+008990Y+045375
T04
X+012470Y+046266
X+012470Y+044494
X+009911Y+044494
X+009911Y+046270
X+007065Y+046263
X+007065Y+044492
X+004506Y+044492
X+004506Y+046267
X+006214Y+018859
X+007690Y+018859
X+009167Y+018859
X+014710Y+020240
X+015690Y+020237
X+016670Y+020240
T05
X+009753Y+018190
X+011478Y+018503
X+012478Y+018503
X+012478Y+019503
X+011478Y+019503
X+011478Y+020503
X+012478Y+020503
X+012478Y+021503
X+011478Y+021503
X+011478Y+022503
X+012478Y+022503
X+013690Y+018190
X+017503Y+018252
X+017503Y+008820
X+017503Y+008810
X+013690Y+008810
X+013690Y+008820
X+009753Y+008820
X+009720Y+008810
X+005878Y+008810
X+005878Y+008820
X+005878Y+018190
X+015380Y+046390
X+016380Y+046390
X+017380Y+046390
T06
X+017940Y+027066
X+018940Y+027066
X+016940Y+027066
X+015940Y+027066
X+015128Y+027066
X+014128Y+027066
X+013128Y+027066
X+012128Y+027066
X+011316Y+027066
X+010316Y+027066
X+009316Y+027066
X+008316Y+027066
X+007441Y+027066
X+006441Y+027066
X+005441Y+027066
X+004441Y+027066
X+004441Y+042814
X+006441Y+042814
X+008316Y+042814
X+010316Y+042814
X+012128Y+042814
X+014128Y+042814
X+015940Y+042814
X+017940Y+042814
T07
X+018338Y+044937
X+017338Y+044937
X+016338Y+044937
T08
X+009753Y+017190
X+009753Y+013940
X+009753Y+013070
X+009753Y+009820
X+009720Y+007810
X+009720Y+004560
X+005878Y+004560
X+005878Y+007810
X+005878Y+009820
X+005878Y+013070
X+005878Y+013940
X+005878Y+017190
X+013690Y+017190
X+013690Y+013940
X+013690Y+013070
X+013690Y+009820
X+013690Y+007810
X+013690Y+004560
X+017503Y+004560
X+017503Y+007810
X+017503Y+009820
X+017503Y+013070
X+017503Y+014002
X+017503Y+017252
T09
X+004986Y+023190
X+010395Y+023190
X+013820Y+023190
X+017560Y+023190
T10
X+013875Y+045440
T00
M30
